<svg version="1.1" viewBox="0.0 0.0 100.0 100.0" fill="none" stroke="none" stroke-linecap="square" stroke-miterlimit="10" xmlns:xlink="http://www.w3.org/1999/xlink" xmlns="http://www.w3.org/2000/svg"><clipPath id="p.0"><path d="m0 0l100.0 0l0 100.0l-100.0 0l0 -100.0z" clip-rule="nonzero"/></clipPath><g clip-path="url(#p.0)"><path fill="#000000" fill-opacity="0.0" d="m0 0l100.0 0l0 100.0l-100.0 0z" fill-rule="evenodd"/><path fill="#efefef" d="m12.735542 50.006737l16.64567 -33.29132l45.448822 0l16.645668 33.29132l-16.645668 33.29133l-45.448822 0z" fill-rule="evenodd"/><path stroke="#434343" stroke-width="1.0" stroke-linejoin="round" stroke-linecap="butt" d="m12.735542 50.006737l16.64567 -33.29132l45.448822 0l16.645668 33.29132l-16.645668 33.29133l-45.448822 0z" fill-rule="evenodd"/><path fill="#000000" fill-opacity="0.0" d="m0 14.456693l92.314964 0l0 71.08661l-92.314964 0z" fill-rule="evenodd"/><path fill="#434343" d="m33.184864 67.229195q-0.640625 -0.25 -1.5 -0.703125q-0.84375 -0.453125 -1.609375 -1.171875q-0.765625 -0.71875 -1.1875 -1.7500038q-0.4375 -1.234375 -0.59375 -2.421875q-0.140625 -1.203125 -0.09375 -2.78125q0 -2.21875 0.3125 -3.859375q0.328125 -1.640625 1.015625 -3.34375q0.078125 -0.125 0.3125 -0.75q0.234375 -0.625 0.546875 -1.34375q0.328125 -0.71875 0.5 -1.109375q0.34375 -0.71875 1.046875 -1.9375q0.703125 -1.21875 1.515625 -2.375q1.234375 -1.828125 2.078125 -3.0q0.859375 -1.171875 1.640625 -1.984375q0.796875 -0.8125 1.75 -1.578125q0.96875 -0.765625 2.421875 -1.75q0.9375 -0.6875 2.40625 -0.859375q1.46875 -0.171875 2.875 0.453125q1.40625 0.625 2.09375 2.328125q0.46875 0.890625 0.421875 2.234375q-0.03125 1.34375 -0.5 2.859375q-0.46875 1.515625 -1.203125 2.84375q-0.71875 1.3125 -1.625 2.125q-0.546875 0.515625 -1.46875 0.171875q-0.90625 -0.34375 -1.515625 -0.890625q-0.375 -0.734375 -0.40625 -0.859375q-0.015625 -0.125 0.15625 -0.171875q0.25 -0.296875 0.671875 -1.015625q0.4375 -0.734375 0.859375 -1.5625q0.4375 -0.828125 0.59375 -1.34375q0.34375 -1.796875 0.46875 -2.359375q0.140625 -0.578125 -0.25 -0.96875q-0.171875 -0.171875 -0.5 -0.125q-0.3125 0.046875 -1.03125 0.421875q-0.984375 0.421875 -2.328125 1.734375q-1.34375 1.296875 -2.671875 3.09375q-1.703125 2.25 -2.859375 4.0q-1.140625 1.75 -1.734375 3.59375q-0.09375 0.15625 -0.28125 0.625q-0.1875 0.46875 -0.1875 0.46875q0.03125 0.171875 -0.140625 0.84375q-0.171875 0.65625 -0.375 1.125q-0.46875 1.96875 -0.5625 3.78125q-0.078125 1.8125 0.234375 3.15625q0.328125 1.34375 0.96875 1.984375q0.546875 0.375 1.390625 0.25q0.859375 -0.125 1.96875 -0.59375q1.109375 -0.46875 2.390625 -1.03125q1.03125 -0.421875 1.875 -0.9375q0.859375 -0.515625 1.28125 -0.890625q0.34375 -0.25 0.875 -0.53125q0.53125 -0.28125 0.921875 -0.28125q0.59375 -0.21875 0.890625 0.34375q0.296875 0.546875 0.296875 1.40625q0 0.59375 -0.859375 1.453125q-0.84375 0.84375 -1.859375 1.453125q-0.34375 0.3281288 -0.921875 0.6093788q-0.578125 0.28125 -1.171875 0.5q-0.890625 0.671875 -2.21875 1.3125q-1.328125 0.640625 -2.671875 0.984375q-1.34375 0.34375 -2.453125 0.125zm17.62825 1.109375q0 0 -0.546875 -0.109375q-0.53125 -0.09375 -0.859375 -0.0625q-0.6875 -0.125 -1.375 -0.703125q-0.6875 -0.578125 -0.546875 -1.25q0.171875 -0.171875 0.234375 -0.734375q0.0625 -0.546875 0.0625 -0.890625q0.125 -0.34375 0.15625 -0.515625q0.046875 -0.17187881 0.21875 -0.8437538q0.09375 -0.734375 0.359375 -2.03125q0.28125 -1.296875 0.625 -2.8125q0.34375 -1.515625 0.703125 -2.90625q0.359375 -1.390625 0.640625 -2.328125q0.28125 -0.9375 0.40625 -1.0625q0 0 0 -0.140625q0 -0.15625 -0.046875 -0.328125q0 0 0.0625 -0.40625q0.078125 -0.40625 0.375 -0.953125q0.171875 -0.46875 0.265625 -1.015625q0.109375 -0.5625 0.109375 -0.734375q0.171875 -0.21875 0.453125 -1.046875q0.28125 -0.828125 0.578125 -1.6875q0.203125 -0.6875 0.484375 -1.453125q0.28125 -0.765625 0.515625 -1.34375q0.234375 -0.578125 0.234375 -0.578125q0 -0.171875 0 -0.1875q0 -0.015625 0 -0.015625q0.125 -0.171875 0.734375 -1.75q0.625 -1.578125 1.703125 -4.09375q0.15625 -0.34375 0.390625 -0.765625q0.234375 -0.4375 0.234375 -0.609375q0.21875 -0.34375 0.765625 -0.34375q0.5625 0 1.15625 0.234375q0.609375 0.234375 0.8125 0.71875l0.984375 0.671875l-1.453125 3.109375q-0.59375 1.203125 -1.03125 2.203125q-0.421875 1.0 -0.421875 1.171875q0 0 -0.171875 0.515625q-0.171875 0.515625 -0.40625 1.3125q-0.234375 0.78125 -0.4375 1.546875q-0.421875 1.359375 -0.796875 2.265625q-0.359375 0.890625 -0.359375 1.0625q0 -0.09375 0.890625 -0.15625q0.90625 -0.0625 2.25 -0.125q1.34375 -0.0625 2.765625 -0.125q1.4375 -0.0625 2.5624962 -0.140625q1.125 -0.09375 1.5625 -0.1875l2.171875 -0.296875l1.015625 -3.796875q0.3125 -1.234375 0.796875 -2.9375q0.484375 -1.703125 0.875 -2.9375q0.59375 -2.015625 1.359375 -2.921875q0.765625 -0.921875 1.28125 -0.921875q0.734375 0 1.15625 0.59375q0.421875 0.59375 0.59375 0.9375q0.5625 0.421875 0.53125 1.03125q-0.015625 0.59375 -0.65625 1.609375q-0.59375 1.15625 -1.0 2.53125q-0.40625 1.359375 -0.75 2.203125q0.046875 0.515625 -0.09375 0.84375q-0.125 0.3125 -0.296875 0.53125q-0.078125 0.078125 -0.3125 0.640625q-0.234375 0.546875 -0.4375 1.109375q-0.1875 0.546875 -0.1875 0.671875q0.046875 0.296875 -0.078125 0.75q-0.125 0.453125 -0.296875 0.625q-0.046875 0.25 -0.3125 1.296875q-0.25 1.046875 -0.609375 2.4375q-0.359375 1.375 -0.734375 2.703125q-0.359375 1.328125 -0.6875 2.171875q0.03125 0.296875 -0.1875 0.75q-0.203125 0.453125 -0.15625 0.78125q-0.171875 0.515625 -0.40625 1.3125q-0.234375 0.78125 -0.1875 1.0q-0.171875 0.984375 -0.484375 2.1875q-0.296875 1.1875038 -0.515625 2.0781288q-0.203125 0.890625 -0.203125 1.015625q-0.125 0.171875 -0.75 0.0625q-0.609375 -0.09375 -1.078125 -0.265625q-0.8125 -0.46875 -1.2187462 -1.3125q-0.40625 -0.828125 0.015625 -1.8125038q0.21874619 -0.328125 0.4843712 -1.6875q0.28125 -1.375 0.59375 -2.703125q0.203125 -0.640625 0.40625 -1.65625q0.21875 -1.03125 0.40625 -2.046875q0.203125 -1.03125 0.34375 -1.75q0.15625 -0.734375 0.25 -0.8125q0 -0.171875 0 -0.296875q0 -0.125 0 -0.125q-0.09375 -0.09375 -0.953125 -0.109375q-0.84375 -0.03125 -2.1249962 0.015625q-1.28125 0.046875 -2.71875 0.171875q-1.421875 0.125 -2.65625 0.34375q-0.46875 0.046875 -1.234375 0.046875q-0.765625 0 -1.109375 0.03125q-0.46875 0 -0.796875 0.03125q-0.3125 0.015625 -0.3125 0.015625q-0.046875 0.125 -0.265625 0.859375q-0.203125 0.71875 -0.46875 1.71875q-0.25 1.0 -0.515625 2.078125q-0.25 1.0625 -0.4375 1.9375q-0.1875 0.875 -0.234375 1.296875q-0.125 0.765625 -0.390625 1.953125q-0.25 1.171875 -0.53125 2.3593788q-0.265625 1.1875 -0.46875 2.109375q-0.1875 0.921875 -0.265625 1.171875z" fill-rule="nonzero"/></g></svg>