<svg version="1.1" viewBox="0.0 0.0 136.01312335958005 100.0" fill="none" stroke="none" stroke-linecap="square" stroke-miterlimit="10" xmlns:xlink="http://www.w3.org/1999/xlink" xmlns="http://www.w3.org/2000/svg"><clipPath id="p.0"><path d="m0 0l136.01312 0l0 100.0l-136.01312 0l0 -100.0z" clip-rule="nonzero"/></clipPath><g clip-path="url(#p.0)"><path fill="#000000" fill-opacity="0.0" d="m0 0l136.01312 0l0 100.0l-136.01312 0z" fill-rule="evenodd"/><path fill="#efefef" d="m17.91553 50.012047l23.417322 -46.834625l63.937008 0l23.41732 46.834625l-23.41732 46.834625l-63.937008 0z" fill-rule="evenodd"/><path stroke="#434343" stroke-width="1.0" stroke-linejoin="round" stroke-linecap="butt" d="m17.91553 50.012047l23.417322 -46.834625l63.937008 0l23.41732 46.834625l-23.41732 46.834625l-63.937008 0z" fill-rule="evenodd"/><path fill="#000000" fill-opacity="0.0" d="m-2.2703412 -8.141732l129.85828 0l0 109.88976l-129.85828 0z" fill-rule="evenodd"/><path fill="#434343" d="m39.964268 77.46014q-1.125 -0.4375 -2.625 -1.234375q-1.484375 -0.78125 -2.828125 -2.046875q-1.34375 -1.265625 -2.09375 -3.0625q-0.7343769 -2.15625 -1.0000019 -4.25q-0.265625 -2.09375 -0.1875 -4.859375q0 -3.875 0.5625 -6.75q0.5625019 -2.875 1.7500019 -5.859375q0.15625 -0.234375 0.5625 -1.3125q0.40625 -1.078125 0.96875 -2.34375q0.5625 -1.28125 0.859375 -1.953125q0.59375 -1.265625 1.828125 -3.390625q1.234375 -2.125 2.65625 -4.140625q2.15625 -3.21875 3.640625 -5.265627q1.5 -2.046875 2.875 -3.46875q1.390625 -1.421875 3.0625 -2.765625q1.6875 -1.34375 4.234375 -3.0625q1.640625 -1.1875 4.203125 -1.484375q2.578125 -0.296875 5.046871 0.78125q2.46875 1.078125 3.65625 4.0625q0.828125 1.578125 0.75 3.9375q-0.078125 2.34375 -0.90625 5.000002q-0.8125 2.640625 -2.078125 4.953125q-1.265625 2.3125 -2.84375 3.734375q-0.9687462 0.890625 -2.5781212 0.296875q-1.59375 -0.59375 -2.640625 -1.5625q-0.671875 -1.28125 -0.71875 -1.5q-0.03125 -0.21875 0.265625 -0.296875q0.453125 -0.53125 1.1875 -1.796875q0.75 -1.265625 1.5 -2.71875q0.75 -1.453125 1.046875 -2.359375q0.59375 -3.125002 0.8125 -4.125002q0.234375 -1.015625 -0.4375 -1.6875q-0.296875 -0.296875 -0.859375 -0.21875q-0.5625 0.0625 -1.828125 0.734375q-1.71875 0.75 -4.078125 3.03125q-2.34375 2.265627 -4.65625 5.406252q-2.984375 3.953125 -5.0 7.015625q-2.015625 3.0625 -3.0625 6.265625q-0.15625 0.3125 -0.5 1.140625q-0.328125 0.8125 -0.328125 0.8125q0.078125 0.296875 -0.21875 1.453125q-0.296875 1.15625 -0.671875 1.984375q-0.828125 3.421875 -0.984375 6.59375q-0.140625 3.171875 0.421875 5.53125q0.5625 2.34375 1.6875 3.46875q0.96875 0.671875 2.453125 0.453125q1.5 -0.234375 3.4375 -1.046875q1.9375 -0.828125 4.1875 -1.796875q1.78125 -0.75 3.265625 -1.640625q1.5 -0.890625 2.25 -1.5625q0.59375 -0.453125 1.53125 -0.9375q0.9375 -0.484375 1.609375 -0.484375q1.046875 -0.375 1.5625 0.59375q0.53125 0.96875 0.53125 2.46875q0 1.046875 -1.5 2.546875q-1.484375 1.484375 -3.28125 2.53125q-0.59375 0.59375 -1.609375 1.078125q-1.0 0.484375 -2.046875 0.859375q-1.578125 1.1875 -3.890625 2.3125q-2.3125 1.125 -4.671875 1.71875q-2.34375 0.59375 -4.28125 0.21875zm30.82977 1.953125q0 0 -0.9375 -0.1875q-0.921875 -0.1875 -1.53125 -0.125q-1.1875 -0.21875 -2.390625 -1.234375q-1.1875 -1.0 -0.96875 -2.1875q0.3125 -0.296875 0.421875 -1.28125q0.109375 -0.96875 0.109375 -1.5625q0.21875 -0.59375 0.296875 -0.890625q0.078125 -0.296875 0.375 -1.5q0.140625 -1.265625 0.625 -3.53125q0.5 -2.28125 1.09375 -4.9375q0.59375 -2.65625 1.21875 -5.078125q0.640625 -2.421875 1.125 -4.0625q0.484375 -1.65625 0.71875 -1.875q0 0 0 -0.25q0 -0.265625 -0.078125 -0.5625q0 0 0.109375 -0.703125q0.109375 -0.71875 0.640625 -1.6875q0.296875 -0.828125 0.484375 -1.796875q0.1875 -0.96875 0.1875 -1.265625q0.296875 -0.375 0.78125 -1.828125q0.484375 -1.453125 1.0 -2.953125q0.375 -1.1875 0.859375 -2.53125q0.484375 -1.34375 0.890625 -2.34375q0.421875 -1.015625 0.421875 -1.015625q0 -0.3125 0 -0.34375q0 -0.03125 0 -0.03125q0.21875 -0.296875 1.296875 -3.062502q1.09375 -2.765625 2.953125 -7.171875q0.296875 -0.59375 0.703125 -1.34375q0.421875 -0.75 0.421875 -1.046875q0.375 -0.59375 1.34375 -0.59375q0.96875 0 2.015625 0.421875q1.046875 0.40625 1.421875 1.21875l1.71875 1.203125l-2.546875 5.4375q-1.046875 2.09375 -1.796875 3.859377q-0.734375 1.75 -0.734375 2.046875q0 0 -0.296875 0.890625q-0.296875 0.890625 -0.71875 2.28125q-0.40625 1.375 -0.78125 2.71875q-0.75 2.390625 -1.390625 3.96875q-0.625 1.5625 -0.625 1.859375q0 -0.15625 1.5625 -0.265625q1.578125 -0.109375 3.921875 -0.21875q2.359375 -0.109375 4.859375 -0.21875q2.5 -0.125 4.46875 -0.265625q1.984375 -0.15625 2.734375 -0.296875l3.8125 -0.53125l1.78125 -6.640625q0.53125 -2.171875 1.390625 -5.15625q0.859375 -2.984377 1.53125 -5.140627q1.03125 -3.515625 2.375 -5.109375q1.34375 -1.609375 2.25 -1.609375q1.265625 0 2.015625 1.046875q0.75 1.03125 1.046875 1.640625q0.96875 0.734375 0.921875 1.78125q-0.03125 1.046875 -1.15625 2.84375q-1.046875 2.015625 -1.75 4.406252q-0.703125 2.390625 -1.3125 3.875q0.078125 0.90625 -0.140625 1.46875q-0.21875 0.546875 -0.53125 0.921875q-0.140625 0.15625 -0.5625 1.125q-0.40625 0.96875 -0.75 1.9375q-0.328125 0.96875 -0.328125 1.1875q0.078125 0.53125 -0.15625 1.3125q-0.21875 0.78125 -0.515625 1.078125q-0.0625 0.453125 -0.515625 2.28125q-0.453125 1.828125 -1.09375 4.265625q-0.625 2.421875 -1.265625 4.734375q-0.625 2.3125 -1.21875 3.8125q0.0625 0.515625 -0.3125 1.296875q-0.359375 0.78125 -0.296875 1.390625q-0.296875 0.890625 -0.703125 2.28125q-0.40625 1.375 -0.34375 1.75q-0.296875 1.703125 -0.828125 3.796875q-0.515625 2.09375 -0.890625 3.65625q-0.359375 1.578125 -0.359375 1.796875q-0.234375 0.296875 -1.3125 0.109375q-1.078125 -0.1875 -1.90625 -0.484375q-1.421875 -0.8125 -2.125 -2.28125q-0.703125 -1.453125 0.03125 -3.171875q0.375 -0.59375 0.859375 -2.984375q0.484375 -2.390625 1.015625 -4.703125q0.375 -1.109375 0.75 -2.90625q0.375 -1.796875 0.703125 -3.578125q0.34375 -1.796875 0.59375 -3.0625q0.265625 -1.28125 0.421875 -1.421875q0 -0.296875 0 -0.515625q0 -0.234375 0 -0.234375q-0.15625 -0.15625 -1.65625 -0.1875q-1.484375 -0.03125 -3.734375 0.046875q-2.234375 0.0625 -4.734375 0.296875q-2.5 0.21875 -4.65625 0.59375q-0.828125 0.078125 -2.171875 0.078125q-1.34375 0 -1.9375 0.0625q-0.828125 0 -1.390625 0.046875q-0.5625 0.03125 -0.5625 0.03125q-0.0625 0.21875 -0.4375 1.5q-0.375 1.265625 -0.828125 3.03125q-0.4375 1.75 -0.890625 3.609375q-0.453125 1.859375 -0.796875 3.390625q-0.328125 1.53125 -0.40625 2.28125q-0.21875 1.34375 -0.671875 3.40625q-0.4375 2.046875 -0.921875 4.125q-0.484375 2.09375 -0.828125 3.703125q-0.328125 1.609375 -0.484375 2.0625z" fill-rule="nonzero"/></g></svg>